<svg width="64" height="64" viewBox="0 0 64 64" fill="none" xmlns="http://www.w3.org/2000/svg">
<path fill-rule="evenodd" clip-rule="evenodd" d="M37.0993 5.59189C37.385 5.85044 37.4278 6.2784 37.5134 7.13434L38.0732 12.7324C38.2366 14.3659 38.3182 15.1827 38.8711 15.4117C39.4239 15.6406 40.0592 15.1209 41.3298 14.0813L45.684 10.5188C46.3497 9.97404 46.6826 9.70168 47.0674 9.72088C47.4523 9.74007 47.7564 10.0442 48.3647 10.6525L53.3474 15.6352C53.9557 16.2435 54.2598 16.5476 54.279 16.9325C54.2982 17.3173 54.0259 17.6502 53.4811 18.3159L49.9185 22.6702L49.9185 22.6702C48.879 23.9408 48.3592 24.5761 48.5882 25.1289C48.8172 25.6817 49.6339 25.7634 51.2675 25.9268L56.8657 26.4866C57.7216 26.5722 58.1496 26.615 58.4081 26.9007C58.6666 27.1863 58.6666 27.6164 58.6666 28.4767V35.5234C58.6666 36.3836 58.6666 36.8137 58.4081 37.0994C58.1496 37.3851 57.7216 37.4278 56.8657 37.5134L51.2685 38.0732C49.6349 38.2365 48.8182 38.3182 48.5892 38.871C48.3602 39.4238 48.88 40.0591 49.9196 41.3297L53.4813 45.6829C54.026 46.3487 54.2983 46.6816 54.2791 47.0664C54.2599 47.4512 53.9558 47.7554 53.3476 48.3636L48.3648 53.3464C47.7565 53.9546 47.4524 54.2588 47.0676 54.278C46.6827 54.2972 46.3498 54.0248 45.6841 53.4801L41.3299 49.9175C40.0593 48.878 39.424 48.3582 38.8712 48.5872C38.3184 48.8162 38.2367 49.6329 38.0733 51.2665L37.5134 56.8657C37.4278 57.7216 37.385 58.1496 37.0993 58.4081C36.8136 58.6667 36.3835 58.6667 35.5233 58.6667H28.4766C27.6164 58.6667 27.1863 58.6667 26.9006 58.4081C26.6149 58.1496 26.5721 57.7216 26.4865 56.8657L25.9267 51.2675C25.7634 49.634 25.6817 48.8172 25.1289 48.5882C24.5761 48.3592 23.9408 48.879 22.6702 49.9186L18.3158 53.4813C17.65 54.026 17.3171 54.2984 16.9323 54.2792C16.5475 54.26 16.2433 53.9558 15.6351 53.3476L10.6523 48.3648C10.044 47.7566 9.73992 47.4524 9.72072 47.0676C9.70153 46.6828 9.97389 46.3499 10.5186 45.6841L14.0812 41.3298C15.1208 40.0592 15.6406 39.4239 15.4116 38.8711C15.1826 38.3183 14.3659 38.2366 12.7323 38.0732L7.1343 37.5134C6.27837 37.4278 5.85041 37.3851 5.59186 37.0994C5.33331 36.8137 5.33331 36.3836 5.33331 35.5234L5.33331 28.4767C5.33331 27.6164 5.33331 27.1863 5.59186 26.9007C5.85041 26.615 6.27837 26.5722 7.13429 26.4866H7.13431L12.7333 25.9267C14.3669 25.7633 15.1836 25.6816 15.4126 25.1288C15.6416 24.576 15.1218 23.9407 14.0822 22.6701L10.5187 18.3147C9.97401 17.649 9.70165 17.3161 9.72084 16.9312C9.74004 16.5464 10.0442 16.2423 10.6524 15.634L15.6352 10.6512C16.2435 10.043 16.5476 9.73886 16.9324 9.71967C17.3173 9.70048 17.6501 9.97283 18.3159 10.5175L22.6703 14.0802C23.9409 15.1198 24.5762 15.6396 25.129 15.4106C25.6818 15.1816 25.7635 14.3649 25.9268 12.7313L26.4865 7.13434V7.13432C26.5721 6.2784 26.6149 5.85044 26.9006 5.59189C27.1863 5.33334 27.6164 5.33334 28.4766 5.33334H35.5233C36.3835 5.33334 36.8136 5.33334 37.0993 5.59189ZM32 42.6667C37.891 42.6667 42.6666 37.891 42.6666 32C42.6666 26.109 37.891 21.3333 32 21.3333C26.1089 21.3333 21.3333 26.109 21.3333 32C21.3333 37.891 26.1089 42.6667 32 42.6667Z" fill="#20A4F3"/>
</svg>
